<?xml version="1.0" encoding="iso-8859-1"?>
<!-- Generator: Adobe Illustrator 19.0.0, SVG Export Plug-In . SVG Version: 6.00 Build 0)  -->
<svg xmlns="http://www.w3.org/2000/svg" xmlns:xlink="http://www.w3.org/1999/xlink" version="1.1" id="Layer_1" x="0px" y="0px" viewBox="0 0 512 512" style="enable-background:new 0 0 512 512;" xml:space="preserve">
<circle style="fill:#00D9E0;" cx="256" cy="256" r="256"/>
<path style="fill:#00B7BE;" d="M512,256c0-15.518-1.383-30.713-4.028-45.469l-99.692-99.692  C369.964,70.656,315.906,45.617,256,45.617C139.809,45.617,45.617,139.809,45.617,256c0,59.906,25.039,113.964,65.221,152.28  l99.693,99.692C225.288,510.617,240.482,512,256,512C397.385,512,512,397.385,512,256z"/>
<circle style="fill:#FF4F19;" cx="256" cy="256" r="210.38"/>
<path style="fill:#FF3200;" d="M466.379,256c0,116.195-94.185,210.379-210.379,210.379V45.621  C372.195,45.621,466.379,139.805,466.379,256z"/>
<circle style="fill:#FFE047;" cx="256" cy="256" r="166.43"/>
<path style="fill:#FFCF00;" d="M422.435,256c0,91.92-74.515,166.435-166.435,166.435V89.575  C347.919,89.575,422.435,164.08,422.435,256z"/>
<path style="fill:#4B5BE5;" d="M358.279,255.999l51.139-88.575H307.14L256,78.848l-51.14,88.576H102.582l51.139,88.575  l-51.139,88.575H204.86L256,433.15l51.14-88.576h102.278L358.279,255.999z M375.481,187.017l-28.515,49.389l-28.515-49.389H375.481z   M335.654,255.999l-39.827,68.982h-79.655l-39.827-68.982l39.827-68.982h79.655L335.654,255.999z M256,118.034l28.515,49.39h-57.031  L256,118.034z M136.519,187.017h57.03l-28.515,49.389L136.519,187.017z M136.519,324.981l28.515-49.389l28.515,49.389H136.519z   M256,393.964l-28.516-49.39h57.031L256,393.964z M346.966,275.592l28.515,49.389h-57.03L346.966,275.592z"/>
<path style="fill:#1C2EDE;" d="M409.418,167.424H307.14L256,78.848v39.186l28.515,49.39H256v19.593h39.827l39.827,68.982  l-39.827,68.982H256v19.593h28.516L256,393.964v39.186l51.14-88.576h102.278l-51.139-88.575L409.418,167.424z M318.452,187.017  h57.03l-28.515,49.389L318.452,187.017z M375.481,324.981h-57.03l28.515-49.389L375.481,324.981z"/>
<path style="fill:#FFFFFF;" d="M256,437.232c-99.933,0-181.233-81.3-181.233-181.233S156.067,74.765,256,74.765  s181.233,81.3,181.233,181.233S355.933,437.232,256,437.232z M256,94.358c-89.129,0-161.641,72.511-161.641,161.641  c0,89.129,72.511,161.64,161.641,161.64c89.129,0,161.641-72.511,161.641-161.64C417.641,166.869,345.129,94.358,256,94.358z"/>
<path style="fill:#E1E1E3;" d="M256,74.763v19.592c89.132,0,161.635,72.523,161.635,161.635  c0,89.132-72.503,161.655-161.635,161.655v19.592c99.936,0,181.227-81.311,181.227-181.247  C437.227,156.074,355.936,74.763,256,74.763z"/>
<g>
</g>
<g>
</g>
<g>
</g>
<g>
</g>
<g>
</g>
<g>
</g>
<g>
</g>
<g>
</g>
<g>
</g>
<g>
</g>
<g>
</g>
<g>
</g>
<g>
</g>
<g>
</g>
<g>
</g>
</svg>
